<svg width="1188" height="320" viewBox="0 0 1188 320" fill="none" xmlns="http://www.w3.org/2000/svg">
<path d="M328.1 0C238.13 0 159.56 54.77 115.83 101.63L28.5 35.58C16.37 26.4 -1.74 36.18 1.36 50.24L25.54 160L1.35 269.77C-1.75 283.83 16.36 293.6 28.49 284.43L115.82 218.38C159.55 265.23 238.13 320 328.1 320C465.56 320 577 192 577 160C577 128 465.56 0 328.1 0ZM415.53 184C402.28 184 391.53 173.25 391.53 160C391.53 146.74 402.28 136 415.53 136C428.79 136 439.53 146.74 439.53 160C439.53 173.25 428.78 184 415.53 184Z" fill="url(#paint0_linear)"/>
<path d="M737.927 132.067C737.927 141.132 736.108 148.717 732.469 154.822C728.893 160.927 723.898 165.552 717.484 168.697C711.133 171.781 703.825 173.322 695.562 173.322H675.952V218C674.472 218.308 672.838 218.493 671.049 218.555C669.261 218.678 667.596 218.74 666.054 218.74C664.574 218.74 662.909 218.678 661.059 218.555C659.271 218.493 657.668 218.308 656.249 218V92.6625L657.452 91.5525C664.42 91.4292 670.926 91.3058 676.969 91.1825C683.074 90.9975 689.272 90.905 695.562 90.905C703.763 90.905 711.04 92.4158 717.392 95.4375C723.805 98.4592 728.831 103.022 732.469 109.127C736.108 115.232 737.927 122.879 737.927 132.067ZM675.952 106.445V157.875C679.467 157.813 683.043 157.782 686.682 157.782C690.382 157.721 693.126 157.69 694.914 157.69C701.019 157.69 705.675 156.333 708.882 153.62C712.15 150.907 714.37 147.577 715.542 143.63C716.775 139.622 717.392 135.767 717.392 132.067C717.392 128.306 716.775 124.482 715.542 120.597C714.37 116.651 712.15 113.352 708.882 110.7C705.675 107.987 701.019 106.63 694.914 106.63C692.263 106.63 689.21 106.63 685.757 106.63C682.303 106.63 679.035 106.568 675.952 106.445ZM829.665 135.305C829.665 130.618 828.894 125.962 827.353 121.337C825.873 116.712 823.252 112.889 819.49 109.867C815.728 106.784 810.518 105.242 803.858 105.242C794.114 105.242 786.745 109.528 781.75 118.1C776.817 126.61 774.35 139.067 774.35 155.47C774.35 170.763 777.063 182.542 782.49 190.805C787.917 199.068 795.409 203.2 804.968 203.2C810.703 203.2 816.314 201.997 821.803 199.592C827.291 197.126 832.687 193.642 837.99 189.14C840.148 190.558 842.183 192.47 844.095 194.875C846.007 197.28 847.24 199.623 847.795 201.905C842.738 207.023 836.14 211.402 828 215.04C819.922 218.617 811.165 220.405 801.73 220.405C792.85 220.405 785.327 218.586 779.16 214.948C773.055 211.309 768.122 206.407 764.36 200.24C760.598 194.012 757.854 187.043 756.128 179.335C754.463 171.565 753.63 163.579 753.63 155.377C753.63 140.022 755.943 127.473 760.568 117.73C765.254 107.987 771.421 100.802 779.068 96.1775C786.776 91.4908 795.163 89.1475 804.228 89.1475C813.416 89.1475 821.34 90.8742 828 94.3275C834.66 97.7192 839.809 102.19 843.448 107.74C847.086 113.228 848.905 119.087 848.905 125.315C848.905 128.707 848.042 131.42 846.315 133.455C844.588 135.49 841.721 136.507 837.713 136.507C836.233 136.507 834.876 136.415 833.643 136.23C832.471 136.045 831.145 135.737 829.665 135.305ZM879.618 91.7375C881.838 91.3675 884.212 91.1208 886.741 90.9975C889.269 90.8742 891.335 90.8125 892.938 90.8125C894.541 90.8125 896.484 90.8742 898.766 90.9975C901.047 91.1208 903.267 91.3675 905.426 91.7375L923.001 149.642C923.432 151.061 923.987 153.127 924.666 155.84C925.406 158.553 926.176 161.452 926.978 164.535C927.78 167.618 928.458 170.486 929.013 173.137C929.63 175.789 930.061 177.732 930.308 178.965H931.326C931.572 177.732 932.004 175.789 932.621 173.137C933.237 170.486 933.916 167.618 934.656 164.535C935.457 161.452 936.197 158.553 936.876 155.84C937.616 153.127 938.201 151.061 938.633 149.642L956.208 91.7375C958.551 91.3675 960.802 91.1208 962.961 90.9975C965.181 90.8742 967.123 90.8125 968.788 90.8125C970.33 90.8125 972.334 90.8742 974.801 90.9975C977.267 91.1208 979.703 91.3675 982.108 91.7375L991.913 217.722C990.495 218.093 988.861 218.37 987.011 218.555C985.161 218.74 983.434 218.833 981.831 218.833C978.624 218.833 975.695 218.617 973.043 218.185L968.696 150.475C968.511 147.145 968.295 143.26 968.048 138.82C967.863 134.318 967.678 129.786 967.493 125.222C967.37 120.659 967.277 116.558 967.216 112.92H966.198L940.761 198.667C939.281 198.914 937.616 199.099 935.766 199.222C933.916 199.346 932.251 199.407 930.771 199.407C929.291 199.407 927.626 199.346 925.776 199.222C923.926 199.099 922.291 198.914 920.873 198.667L895.528 112.92H894.418C894.295 116.558 894.141 120.659 893.956 125.222C893.832 129.786 893.678 134.318 893.493 138.82C893.308 143.26 893.123 147.145 892.938 150.475L888.591 218.185C887.111 218.432 885.631 218.586 884.151 218.648C882.671 218.771 881.16 218.833 879.618 218.833C877.953 218.833 876.226 218.74 874.438 218.555C872.65 218.37 871.108 218.093 869.813 217.722L879.618 91.7375ZM1115.98 154.822C1115.98 162.037 1115.51 168.975 1114.59 175.635C1113.66 182.233 1111.78 188.4 1108.95 194.135C1106.17 199.808 1102.01 204.927 1096.46 209.49C1093.75 211.71 1090.48 213.529 1086.65 214.948C1082.89 216.304 1079.01 217.291 1075 217.907C1071.05 218.524 1067.45 218.833 1064.18 218.833C1059.18 218.833 1054.62 218.802 1050.49 218.74C1046.36 218.678 1042.16 218.586 1037.91 218.463C1033.65 218.339 1028.84 218.216 1023.48 218.093L1022.27 216.982V92.6625L1023.48 91.5525C1028.84 91.3675 1033.65 91.2442 1037.91 91.1825C1042.16 91.0592 1046.36 90.9975 1050.49 90.9975C1054.62 90.9358 1059.18 90.905 1064.18 90.905C1067.45 90.905 1071.05 91.2133 1075 91.83C1079.01 92.4467 1082.89 93.4642 1086.65 94.8825C1090.48 96.2392 1093.75 98.0275 1096.46 100.247C1101.95 104.811 1106.08 109.96 1108.85 115.695C1111.69 121.43 1113.57 127.597 1114.5 134.195C1115.48 140.793 1115.98 147.669 1115.98 154.822ZM1095.53 154.822C1095.53 149.334 1095.16 143.784 1094.42 138.172C1093.68 132.499 1092.24 127.288 1090.08 122.54C1087.98 117.792 1084.84 113.999 1080.64 111.162C1076.45 108.264 1070.93 106.815 1064.08 106.815C1060.2 106.815 1056.59 106.784 1053.26 106.722C1049.93 106.661 1046.17 106.63 1041.98 106.63V202.922C1046.17 202.922 1049.93 202.953 1053.26 203.015C1056.59 203.015 1060.2 203.015 1064.08 203.015C1070.93 203.015 1076.45 201.566 1080.64 198.667C1084.84 195.769 1087.98 191.946 1090.08 187.197C1092.24 182.449 1093.68 177.238 1094.42 171.565C1095.16 165.892 1095.53 160.311 1095.53 154.822Z" fill="url(#paint1_linear)"/>
<defs>
<linearGradient id="paint0_linear" x1="199" y1="106" x2="288.999" y2="320" gradientUnits="userSpaceOnUse">
<stop offset="0.430108" stop-color="#972FFF"/>
<stop offset="0.430208" stop-opacity="0.8"/>
<stop offset="0.430308" stop-color="#3A185B" stop-opacity="0.8"/>
<stop offset="0.432054" stop-color="#1A0D26" stop-opacity="0.8"/>
<stop offset="0.438941" stop-color="#280D43" stop-opacity="0.8"/>
</linearGradient>
<linearGradient id="paint1_linear" x1="636.5" y1="160" x2="1146.5" y2="160" gradientUnits="userSpaceOnUse">
<stop offset="0.205388" stop-color="#972FFF"/>
<stop offset="0.205388" stop-color="#4E3864"/>
</linearGradient>
</defs>
</svg>
