<svg width="576" height="320" viewBox="0 0 576 320" fill="none" xmlns="http://www.w3.org/2000/svg">
<path d="M327.1 0C237.13 0 158.56 54.77 114.83 101.63L27.5 35.58C15.37 26.4 -2.74 36.18 0.360001 50.24L24.54 160L0.350001 269.77C-2.75 283.83 15.36 293.6 27.49 284.43L114.82 218.38C158.55 265.23 237.13 320 327.1 320C464.56 320 576 192 576 160C576 128 464.56 0 327.1 0ZM414.53 184C401.28 184 390.53 173.25 390.53 160C390.53 146.74 401.28 136 414.53 136C427.79 136 438.53 146.74 438.53 160C438.53 173.25 427.78 184 414.53 184Z" fill="url(#paint0_linear)"/>
<defs>
<linearGradient id="paint0_linear" x1="198" y1="106" x2="287.999" y2="320" gradientUnits="userSpaceOnUse">
<stop offset="0.430108" stop-color="#972FFF"/>
<stop offset="0.430208" stop-opacity="0.8"/>
<stop offset="0.430308" stop-color="#3A185B" stop-opacity="0.8"/>
<stop offset="0.432054" stop-color="#1A0D26" stop-opacity="0.8"/>
<stop offset="0.438941" stop-color="#280D43" stop-opacity="0.8"/>
</linearGradient>
</defs>
</svg>
