<svg width="577" height="320" viewBox="0 0 577 320" fill="none" xmlns="http://www.w3.org/2000/svg">
<path d="M328.1 0C238.13 0 159.56 54.77 115.83 101.63L28.5 35.58C16.37 26.4 -1.74 36.18 1.36 50.24L25.54 160L1.35 269.77C-1.75 283.83 16.36 293.6 28.49 284.43L115.82 218.38C159.55 265.23 238.13 320 328.1 320C465.56 320 577 192 577 160C577 128 465.56 0 328.1 0ZM415.53 184C402.28 184 391.53 173.25 391.53 160C391.53 146.74 402.28 136 415.53 136C428.79 136 439.53 146.74 439.53 160C439.53 173.25 428.78 184 415.53 184Z" fill="url(#paint0_linear)"/>
<defs>
<linearGradient id="paint0_linear" x1="199" y1="106" x2="288.999" y2="320" gradientUnits="userSpaceOnUse">
<stop offset="0.466567" stop-color="#00BDD6"/>
<stop offset="0.466667" stop-color="#2E303E"/>
</linearGradient>
</defs>
</svg>
