<svg width="1036" height="250" viewBox="0 0 1036 250" fill="none" xmlns="http://www.w3.org/2000/svg">
<path d="M264.066 0C191.434 0 128.005 42.7891 92.7021 79.3984L22.2015 27.7969C12.4091 20.625 -2.21096 28.2656 0.291635 39.25L19.8119 125L0.283562 210.758C-2.21904 221.742 12.401 229.375 22.1934 222.211L92.694 170.609C127.997 207.211 191.434 250 264.066 250C375.036 250 465 150 465 125C465 100 375.036 0 264.066 0ZM334.647 143.75C323.95 143.75 315.272 135.352 315.272 125C315.272 114.641 323.95 106.25 334.647 106.25C345.352 106.25 354.022 114.641 354.022 125C354.022 135.352 345.343 143.75 334.647 143.75Z" fill="url(#paint0_linear)"/>
<path d="M571.394 117.84L568.619 113.03L578.979 107.11C587.489 102.423 591.744 94.9617 591.744 84.725C591.744 65.6083 577.191 56.05 548.084 56.05H531.064V180H525.514V50.5H548.084C564.364 50.5 576.636 53.5217 584.899 59.565C593.163 65.485 597.294 73.8717 597.294 84.725C597.294 97.0583 592.114 106.123 581.754 111.92L571.394 117.84ZM703.182 156.32C699.852 164.46 695.165 170.75 689.122 175.19C683.079 179.63 674.014 181.85 661.927 181.85C646.757 181.85 635.78 177.225 628.997 167.975C622.214 158.602 618.822 144.048 618.822 124.315V106.185C618.822 86.4517 622.214 71.96 628.997 62.71C635.78 53.3367 646.757 48.65 661.927 48.65C674.014 48.65 683.079 50.87 689.122 55.31C695.165 59.75 699.852 66.04 703.182 74.18L698.187 76.585C695.35 69.4317 691.342 63.9433 686.162 60.12C680.982 56.1733 672.904 54.2 661.927 54.2C655.884 54.2 650.704 55.0017 646.387 56.605C642.07 58.085 638.185 60.675 634.732 64.375C631.279 68.075 628.689 73.44 626.962 80.47C625.235 87.3767 624.372 95.9483 624.372 106.185V124.315C624.372 134.552 625.235 143.185 626.962 150.215C628.689 157.122 631.279 162.425 634.732 166.125C638.185 169.825 642.07 172.477 646.387 174.08C650.704 175.56 655.884 176.3 661.927 176.3C672.904 176.3 680.982 174.388 686.162 170.565C691.342 166.618 695.35 161.068 698.187 153.915L703.182 156.32ZM747.381 174.45H820.271V63.635L778.646 152.805L737.021 63.45V180L731.471 179.815V50.315H737.021L778.646 139.67L820.271 50.5L825.821 50.315V180L747.381 179.815V174.45ZM880.213 180H862.453V50.5H880.213C897.973 50.5 913.019 57.0367 925.353 70.11C937.686 83.1833 943.853 98.23 943.853 115.25C943.853 132.27 937.686 147.317 925.353 160.39C913.019 173.463 897.973 180 880.213 180ZM880.213 174.45C896.369 174.45 910.059 168.53 921.283 156.69C932.629 144.727 938.303 130.913 938.303 115.25C938.303 99.5867 932.629 85.835 921.283 73.995C910.059 62.0317 896.369 56.05 880.213 56.05H868.003V174.45H880.213Z" fill="#33DDFF"/>
<defs>
<linearGradient id="paint0_linear" x1="159.844" y1="82.8125" x2="235.54" y2="251.774" gradientUnits="userSpaceOnUse">
<stop offset="0.416511" stop-color="#1D4B6B"/>
<stop offset="0.430524" stop-color="#33DDFF"/>
</linearGradient>
</defs>
</svg>
