<svg width="601" height="323" viewBox="0 0 601 323" fill="none" xmlns="http://www.w3.org/2000/svg">
<path d="M341.298 0C247.423 0 165.443 55.2835 119.815 102.583L28.6948 35.9136C16.0384 26.6475 -2.85761 36.5192 0.37693 50.711L25.6064 161.5L0.366496 272.299C-2.86804 286.491 16.0279 296.352 28.6844 287.097L119.805 220.427C165.432 267.717 247.423 323 341.298 323C484.723 323 601 193.8 601 161.5C601 129.2 484.723 0 341.298 0ZM432.522 185.725C418.697 185.725 407.48 174.874 407.48 161.5C407.48 148.116 418.697 137.275 432.522 137.275C446.358 137.275 457.564 148.116 457.564 161.5C457.564 174.874 446.347 185.725 432.522 185.725Z" fill="url(#paint0_linear)"/>
<defs>
<linearGradient id="paint0_linear" x1="206.595" y1="106.994" x2="295.331" y2="325.103" gradientUnits="userSpaceOnUse">
<stop offset="0.450942" stop-color="#075767"/>
<stop offset="0.451042" stop-color="#1D3C42"/>
</linearGradient>
</defs>
</svg>
